<svg width="91" height="408" viewBox="0 0 91 408" fill="none" xmlns="http://www.w3.org/2000/svg">
<path fill-rule="evenodd" clip-rule="evenodd" d="M-68.1185 57.1937C-42.6469 73.9755 -33.1753 104.452 -15.7174 129.465C4.79105 158.849 43.0538 180.536 42.9778 216.37C42.9011 252.543 10.9191 280.159 -16.0881 304.224C-41.2322 326.629 -71.2114 342.69 -104.502 347.783C-137.048 352.762 -169.866 346.426 -199.606 332.299C-229.402 318.145 -259.911 299.024 -271.865 268.278C-283.356 238.723 -270.15 206.339 -260.298 176.197C-252.101 151.122 -235.041 132.031 -220.201 110.219C-201.639 82.934 -193.808 43.5264 -162.647 32.6617C-131.138 21.6755 -95.9842 38.8346 -68.1185 57.1937Z" fill="url(#paint0_linear)"/>
<path fill-rule="evenodd" clip-rule="evenodd" d="M-79.5614 55.2196C-54.0898 72.0014 -44.6181 102.478 -27.1603 127.491C-6.65182 156.875 31.611 178.562 31.5349 214.395C31.4582 250.569 -0.523801 278.185 -27.5309 302.25C-52.6751 324.655 -82.6542 340.716 -115.945 345.809C-148.491 350.788 -181.309 344.452 -211.048 330.325C-240.845 316.17 -271.354 297.05 -283.307 266.304C-294.799 236.749 -281.592 204.365 -271.74 174.223C-263.544 149.148 -246.483 130.057 -231.644 108.245C-213.082 80.9599 -205.251 41.5524 -174.09 30.6877C-142.58 19.7015 -107.427 36.8605 -79.5614 55.2196Z" fill="url(#paint1_linear)"/>
<defs>
<linearGradient id="paint0_linear" x1="-130.456" y1="262.408" x2="139.943" y2="185.541" gradientUnits="userSpaceOnUse">
<stop stop-color="#4D71A8"/>
<stop offset="1" stop-color="#4D71A8" stop-opacity="0"/>
</linearGradient>
<linearGradient id="paint1_linear" x1="-141.899" y1="260.433" x2="128.5" y2="183.567" gradientUnits="userSpaceOnUse">
<stop stop-color="#4D71A8"/>
<stop offset="1" stop-color="#4D71A8" stop-opacity="0"/>
</linearGradient>
</defs>
</svg>
