<svg width="124" height="595" viewBox="0 0 124 595" fill="none" xmlns="http://www.w3.org/2000/svg">
<path fill-rule="evenodd" clip-rule="evenodd" d="M432.88 113.594C475.054 134.621 497.105 185.205 503.857 231.844C509.98 274.14 480.792 310.904 467.313 351.46C454.571 389.8 457.054 435.507 427.145 462.668C396.494 490.503 351.515 492.517 310.145 494.188C268.497 495.871 228.542 488.472 190.149 472.243C143.214 452.403 84.0527 438.066 65.3 390.687C46.5324 343.27 74.1346 289.318 100.461 245.643C122.406 209.239 162.103 190.938 198.719 169.35C230.234 150.769 262.383 137.67 297.973 129.196C343.115 118.447 391.351 92.889 432.88 113.594Z" fill="url(#paint0_linear)"/>
<path fill-rule="evenodd" clip-rule="evenodd" d="M419.021 113.594C461.195 134.621 483.246 185.205 489.998 231.844C496.12 274.14 466.933 310.904 453.454 351.46C440.712 389.8 443.195 435.507 413.286 462.668C382.635 490.503 337.656 492.517 296.286 494.188C254.638 495.871 214.683 488.472 176.29 472.243C129.355 452.403 70.1936 438.066 51.4408 390.687C32.6732 343.27 60.2755 289.318 86.6022 245.643C108.546 209.239 148.243 190.938 184.86 169.35C216.375 150.769 248.524 137.67 284.114 129.196C329.256 118.447 377.492 92.889 419.021 113.594Z" fill="url(#paint1_linear)"/>
<defs>
<linearGradient id="paint0_linear" x1="449.989" y1="349.046" x2="-50.622" y2="246.724" gradientUnits="userSpaceOnUse">
<stop stop-color="#4D71A8"/>
<stop offset="1" stop-color="#4D71A8" stop-opacity="0"/>
</linearGradient>
<linearGradient id="paint1_linear" x1="436.13" y1="349.046" x2="-64.4811" y2="246.724" gradientUnits="userSpaceOnUse">
<stop stop-color="#4D71A8"/>
<stop offset="1" stop-color="#4D71A8" stop-opacity="0"/>
</linearGradient>
</defs>
</svg>
