<svg width="240" height="674" viewBox="0 0 240 674" fill="none" xmlns="http://www.w3.org/2000/svg">
<path fill-rule="evenodd" clip-rule="evenodd" d="M-139.554 528.395C-179.946 526.78 -214.992 494.962 -236.681 460.848C-256.35 429.91 -246.447 390.88 -250.168 354.409C-253.686 319.93 -271.707 285.044 -257.861 253.272C-243.672 220.713 -209.191 203.315 -177.412 187.455C-145.42 171.488 -111.557 163.221 -75.8106 162.413C-32.1111 161.425 19.2185 151.83 50.557 182.301C81.9202 212.797 79.3036 264.717 74.07 308.148C69.7076 344.349 45.0875 372.632 24.0338 402.402C5.91333 428.026 -14.631 449.583 -39.4944 468.732C-71.0314 493.022 -99.7791 529.986 -139.554 528.395Z" fill="url(#paint0_linear)"/>
<path fill-rule="evenodd" clip-rule="evenodd" d="M-128.711 523.52C-169.103 521.905 -204.15 490.087 -225.838 455.973C-245.507 425.035 -235.604 386.005 -239.325 349.534C-242.843 315.055 -260.864 280.169 -247.018 248.397C-232.83 215.838 -198.348 198.44 -166.569 182.58C-134.577 166.613 -100.714 158.345 -64.9678 157.537C-21.2682 156.55 30.0613 146.954 61.3998 177.426C92.7631 207.922 90.1464 259.842 84.9128 303.273C80.5504 339.474 55.9303 367.756 34.8766 397.527C16.7562 423.15 -3.78816 444.708 -28.6516 463.857C-60.1886 488.147 -88.9363 525.111 -128.711 523.52Z" fill="url(#paint1_linear)"/>
<defs>
<linearGradient id="paint0_linear" x1="-235.765" y1="350.203" x2="191.893" y2="254.155" gradientUnits="userSpaceOnUse">
<stop stop-color="#4D71A8"/>
<stop offset="1" stop-color="#4D71A8" stop-opacity="0"/>
</linearGradient>
<linearGradient id="paint1_linear" x1="-224.922" y1="345.328" x2="202.736" y2="249.28" gradientUnits="userSpaceOnUse">
<stop stop-color="#4D71A8"/>
<stop offset="1" stop-color="#4D71A8" stop-opacity="0"/>
</linearGradient>
</defs>
</svg>
