<svg width="437" height="351" viewBox="0 0 437 351" fill="none" xmlns="http://www.w3.org/2000/svg">
<path fill-rule="evenodd" clip-rule="evenodd" d="M251.522 350.886C303.838 350.886 349.749 311.97 323.966 259.112C298.182 206.254 393.984 207.961 422.126 171.43C456.446 126.878 446.507 -62.2389 226.186 53.0557C190.894 71.5246 100.254 34.0556 70.1885 52.647C34.7984 74.531 -14.9935 119.342 34.7984 165.245C59.3249 187.856 -28.6084 246.543 9.90462 299.112C47.4837 350.405 73.8259 301.507 131.04 311.97C188.253 322.432 212.667 350.886 251.522 350.886Z" fill="#4F76A9" fill-opacity="0.48"/>
<path d="M190.799 258.929C190.799 258.929 202.845 253.262 207.342 249.32C211.839 245.378 217.43 235.584 217.43 235.584C217.43 235.584 278.844 279.936 318.887 273.609C328.114 272.152 346.091 266.019 347.238 255.214C350.368 225.708 307.055 218.168 316.516 203.205C322.292 194.072 340.232 207.665 340.232 207.665L414.643 244.266C414.643 244.266 388.936 307.634 326.551 310.174C249.81 313.298 190.799 258.929 190.799 258.929Z" fill="white"/>
<path fill-rule="evenodd" clip-rule="evenodd" d="M131.803 10.7635C131.104 10.4893 127.354 5.89671 122.592 5.06085C120.428 4.68101 122.392 7.43623 120.011 7.46102C112.918 7.53486 101.392 6.20239 99.2573 7.46102C97.6704 8.39348 101.165 11.651 99.2573 11.8006C81.2561 13.2115 53.7939 31.1851 47.8357 39.905C45.9396 42.68 61.2753 37.9718 58.8319 39.3437C56.0894 40.8835 53.0479 50.966 51.2293 58.753C49.9703 64.1153 49.1777 71.0165 48.8979 78.5237C48.6647 85.0052 48.758 86.0776 49.6906 89.6215C50.763 93.5849 51.6024 94.7507 53.0479 94.1911C53.5608 94.0046 53.7939 93.3051 53.7939 91.9995C53.7939 90.9737 54.3535 87.8962 55.0529 85.1451L56.2653 80.2024L56.7782 82.2541C57.431 84.6321 61.2546 91.9995 64.7051 97.3619C64.8912 97.6465 65.6919 97.2845 66.4139 95.5393C67.0719 93.949 66.8049 91.4084 67.9225 88.6855C70.4685 82.4831 75.4676 74.419 81.2561 67.9639C89.811 58.4238 92.6493 47.3831 100.669 38.5203C115.634 21.9807 134.417 11.7899 131.803 10.7635Z" fill="white"/>
<path fill-rule="evenodd" clip-rule="evenodd" d="M59.0446 41.5941C56.6439 43.5246 53.0804 59.1831 53.0192 59.4448C51.7603 64.8072 50.5467 83.4287 51.7872 86.9542C53.0277 90.4798 56.5013 77.7709 56.5013 77.7709C56.5013 77.7709 61.7515 91.4042 66.3907 95.1421C66.5888 95.3018 60.8764 78.2749 59.0446 68.3349C56.6266 55.2137 60.4109 40.4954 59.0446 41.5941Z" fill="#E7EAEE"/>
<path fill-rule="evenodd" clip-rule="evenodd" d="M148.525 315.83C153.001 314.85 160.554 311.44 163.446 310.274C166.338 309.108 175.15 296.665 178.321 282.63C180.606 272.278 181.772 257.543 180.466 255.072C180.273 254.721 179.568 248.021 181.446 250.209C185.619 255.072 190.573 262.707 206.205 249.026C210.462 245.3 216.105 240.491 214.62 236.239C210.462 224.344 192.441 200.392 189.694 198.578C186.409 196.409 169.806 198.252 145.098 190.959C117.077 182.689 105.409 158.335 94.4438 161.505C85.5759 164.069 64.3292 179.824 58.9969 189.802C33.8233 236.904 64.3292 269.91 71.2765 279.39L78.022 282.303L78.2551 288.318L78.5815 292.095C79.1877 299.323 79.4208 299.976 82.6849 302.4C90.8449 308.602 106.932 314.384 121.48 316.436C128.241 317.368 142.93 317.042 148.525 315.83Z" fill="white"/>
<path fill-rule="evenodd" clip-rule="evenodd" d="M80.6748 286.117L81.0012 289.894C81.6074 297.122 81.8405 297.775 85.1045 300.199C89.9184 303.858 97.4911 307.37 105.879 310.057C111.71 311.925 117.934 313.393 123.9 314.235C130.661 315.167 145.349 314.841 150.945 313.628C153.711 313.029 130.96 295.156 117.558 300.199C107.266 304.072 83.0074 274.53 92.8706 266.812C103.935 258.154 83.6602 224.006 83.0074 216.592C82.3545 209.178 79.7837 207.407 79.7087 207.667C79.6336 207.927 79.6336 208.814 79.8355 210.951C80.7054 220.163 80.6748 286.117 80.6748 286.117Z" fill="#E7EAEE"/>
<path fill-rule="evenodd" clip-rule="evenodd" d="M78.246 214.475C79.225 214.285 80.173 214.924 80.3636 215.903C83.8828 233.983 98.7687 246.223 125.387 252.624C152.163 259.063 170.402 258.715 180.013 251.843C180.824 251.263 180.219 256.231 179.625 256.612C173.357 260.631 152.046 266.629 126.615 261.208C94.0991 254.277 78.8317 226.936 76.8185 216.593C76.628 215.614 77.2671 214.666 78.246 214.475Z" fill="#FFB61D"/>
<path fill-rule="evenodd" clip-rule="evenodd" d="M64.6863 181.854C65.5519 181.359 97.8478 218.373 142.169 226.751C186.49 235.129 197.221 229.801 198.946 218.373C199.094 217.386 200.014 216.708 201.001 216.856C201.987 217.005 202.666 217.925 202.517 218.912C200.331 233.395 179.822 236.84 141.561 230.311C103.781 223.864 77.8784 208.546 64.0157 184.318C63.5204 183.453 63.8206 182.349 64.6863 181.854Z" fill="#FFB61D"/>
<path fill-rule="evenodd" clip-rule="evenodd" d="M250.709 179.802C249.496 179.382 248.191 178.449 247.351 177.377L245.953 175.652L250.895 170.756C258.496 163.295 264.324 155.648 269.36 146.555C271.039 143.524 275.282 133.406 275.282 132.426C275.282 132.1 275.795 130.794 276.401 129.442C277.334 127.484 278.033 126.738 280.038 125.619C282.416 124.22 285.121 123.753 286.287 124.546C288.525 126.038 288.525 130.748 286.287 138.861C283.815 147.767 280.505 154.156 273.65 163.342C272.578 164.74 270.573 167.492 269.127 169.403C265.257 174.533 262.739 177.004 259.335 178.916C255.978 180.781 254.019 181.014 250.709 179.802ZM284.188 175.605L287.546 177.097C288.242 177.418 295.922 181.109 305.147 185.541C320.02 192.688 338.909 201.764 339.024 201.764C339.211 201.764 340.086 199.741 340.283 197.381C340.749 192.298 342.475 185.397 344.48 180.594C345.412 178.449 346.158 175.769 346.158 175.536C346.158 175.429 345.4 175.123 344.159 174.623C342.682 174.027 340.52 173.155 338.138 172.015C326.388 166.372 303.4 154.855 300.555 153.13C297.757 151.498 297.198 151.358 297.198 152.43C297.198 153.829 294.354 160.311 292.162 163.808C290.996 165.72 288.711 169.17 287.079 171.455L284.188 175.605ZM338.232 193.37C339.569 194.145 337.252 195.282 336.693 195.469C333.398 195.748 329.519 195.129 326.341 193.277C324.679 192.099 311.595 184.83 302.916 180.008C298.948 177.803 295.901 176.11 295.286 175.745C293.328 174.579 291.463 173.32 291.136 172.947C290.157 171.688 291.09 171.128 293.841 171.361C295.495 171.502 335.343 191.696 338.232 193.37ZM148.684 315.446C152.281 314.659 157.864 312.303 161.42 310.802C162.289 310.435 163.037 310.12 163.606 309.891C166.498 308.725 175.31 296.281 178.48 282.246C180.765 271.894 181.931 257.16 180.625 254.688C179.838 253.257 184.515 258.059 187.998 261.634C189.054 262.718 190 263.69 190.651 264.34C210.981 284.531 241.243 300.758 272.671 308.358C288.338 312.182 299.483 313.534 314.451 313.534C339.584 313.534 359.401 308.591 377.4 297.727C378.255 297.211 379.056 296.736 379.82 296.284C386.094 292.57 389.832 290.357 400.062 278.842C411.537 265.926 421.744 235.943 425.148 225.592C426.64 220.929 430.277 202.382 430.277 197.754C430.277 192.275 428.366 189.687 425.754 187.029C421.138 182.506 414.89 180.874 409.714 182.833L407.289 183.765L406.543 181.294C405.471 177.564 403.232 174.579 399.782 172.341C394.653 168.937 393.907 168.704 389.29 168.704C385.7 168.704 384.721 168.891 382.436 169.963L379.778 171.176L379.218 169.497C378.146 166.046 374.549 161.236 371.758 159.845C369.283 158.611 364.998 158.498 362.012 159.052C355.484 160.264 350.821 163.295 348.91 167.538C348.35 168.844 347.651 169.87 347.371 169.87C347.138 169.87 337.952 167.304 326.994 162.455C325.146 161.634 323.409 160.865 321.779 160.142C302.101 151.42 297.836 149.53 298.224 147.162C298.55 145.157 298.457 144.037 297.897 142.312C296.918 139.421 295.799 138.628 292.628 138.628C290.11 138.628 290.11 138.628 290.39 137.369C291.882 130.235 291.836 126.132 290.25 123.521C289.178 121.795 287.919 121.096 285.028 120.676C283.349 120.443 282.556 120.583 280.691 121.609C279.432 122.262 278.36 122.728 278.267 122.635C278.173 122.541 278.5 119.977 279.013 116.946C282.836 94.5174 279.882 75.1929 270.137 54.6761C270.043 54.4798 269.935 54.2477 269.812 53.982C266.849 47.6213 254.936 22.045 220.866 9.13954C219.324 8.55539 217.865 7.99056 216.462 7.44772C204.857 2.95558 197.142 -0.0307514 178.527 0.000238926C157.663 0.0349741 150.596 2.9845 136.841 9.27942C134.929 10.1654 133.25 10.6783 133.11 10.4918C132.97 10.2586 132.084 9.69909 131.198 9.2328C130.312 8.7665 128.401 7.60078 127.002 6.6682C122.992 3.96371 120.52 2.84461 119.261 3.12439C117.816 3.49742 117.816 4.70978 119.261 5.26932C119.868 5.50247 120.567 6.29516 120.847 7.08786C121.453 8.76651 122.152 8.95302 122.572 7.55415C122.759 7.04123 123.038 6.6682 123.178 6.76146C123.231 6.78798 123.409 6.8711 123.68 6.99793L123.68 6.99803L123.68 6.9981C124.362 7.31719 125.634 7.91279 127.002 8.57999C128.914 9.51257 131.012 10.4918 131.571 10.7249C132.597 11.098 132.271 11.3777 127.841 13.989C110.542 24.1541 96.4598 39.9614 88.5795 57.9602C87.3671 60.6647 86.2946 62.3433 85.1755 63.2759C82.3312 65.654 76.7357 72.4152 75.4301 75.0731C74.7306 76.5186 73.2385 78.7567 72.0728 80.0624C70.9537 81.368 69.7413 83.0466 69.3217 83.7461C68.9486 84.4921 68.5756 85.005 68.4357 84.9118C68.3424 84.7719 68.4823 82.4871 68.8087 79.8292C69.5082 73.6276 69.5082 71.9955 68.9486 71.8556C68.1093 71.6225 66.8969 74.8865 66.384 78.9433C66.011 81.4146 65.9177 85.1449 66.1509 88.9685L66.4306 95.0303L63.12 89.668C61.9802 87.8728 60.8578 86.0776 60.0614 84.8038L60.0604 84.8022L60.0603 84.802L60.0597 84.8011L60.0576 84.7978L60.055 84.7935L60.0532 84.7906C59.5505 83.9867 59.1789 83.3924 59.0166 83.1399C57.8043 81.368 57.1048 78.7101 57.6178 77.8242C57.8975 77.3112 57.8509 77.0781 57.3846 77.0781C56.4054 77.0781 54.4936 80.2022 53.2346 83.7927C52.6284 85.4713 52.0223 86.8702 51.8358 86.8702C51.1363 86.8702 51.4627 70.177 52.2088 64.8147C53.7475 54.2299 57.8043 41.1737 59.6228 41.1737C59.9958 41.1737 60.3222 40.9872 60.3222 40.7074C60.3222 39.8681 59.1099 40.1945 58.1307 41.267C55.9391 43.6451 53.0481 50.9658 51.2296 58.7529C49.9706 64.1152 49.1779 71.0163 48.8981 78.5236C48.665 85.005 48.7582 86.0775 49.6908 89.6213C50.7633 93.5848 51.6026 94.7505 53.0481 94.191C53.561 94.0045 53.7942 93.305 53.7942 91.9994C53.7942 90.9736 54.3537 87.896 55.0532 85.1449L56.2655 80.2023L56.7784 82.2539C57.4312 84.632 61.2548 91.9994 64.7054 97.3618C67.0835 100.999 67.1301 101.232 67.9228 106.921C68.3424 110.138 69.6481 117.964 72.6789 130.002C75.3569 140.639 90.4118 151.19 94.1708 153.825L94.1714 153.825C94.6664 154.172 94.9654 154.381 95.0143 154.436C95.4806 154.949 96.1334 155.228 96.5064 155.089C96.9261 154.949 97.1592 155.135 97.1592 155.648C97.1592 156.114 97.4856 156.721 97.8586 157C98.3249 157.327 98.6513 158.586 98.7446 160.777C98.9777 165.16 102.242 173.554 104.76 176.305C106.392 178.077 109.796 178.823 113.573 178.17C116.044 177.797 116.743 177.517 116.51 176.958C116.37 176.585 117.256 177.051 118.469 177.983C132.644 188.801 147.006 195.283 163.139 198.081C169.388 199.153 179.739 199.759 185.381 199.34C188.999 199.103 189.994 199.038 190.178 199.393C190.248 199.528 190.202 199.723 190.138 199.992C189.811 201.298 190.231 202.091 197.085 213.701C202.541 222.887 203.007 223.493 209.069 229.695C221.939 242.984 235.974 253.289 251.874 261.263C266.842 268.724 290.74 274.925 312.586 276.884C334.431 278.842 350.122 258.792 350.075 253.662C349.982 246.621 349.003 242.005 346.625 237.529C344.293 233.192 342.755 231.7 335.76 227.037C327.973 221.861 323.17 217.618 320 213.095C317.995 210.251 317.248 207.033 317.248 205.308C317.248 204.189 318.694 201.671 320.839 201.158C322.797 200.645 323.17 200.692 325.362 201.764C326.668 202.37 330.071 203.956 332.869 205.308C335.714 206.614 338.465 207.919 339.024 208.199C340.674 208.657 341.371 211.887 341.749 213.636L341.749 213.637L341.749 213.637L341.75 213.638C341.834 214.028 341.902 214.345 341.962 214.541C342.615 216.965 345.704 220.096 347.697 221.162C351.198 223.034 359.822 223.284 362.2 220.719C362.806 220.067 364.816 219.264 365.23 219.507C365.644 219.75 367.142 221.768 367.142 223.4C367.188 226.198 368.634 228.762 371.711 231.327C377.54 236.176 382.063 237.342 386.633 235.197C389.011 234.078 390.96 233.641 390.96 233.641C390.96 233.641 392.904 236.121 393.021 236.969C393.936 243.594 403.745 246.372 406.356 246.651C406.955 246.711 408.12 246.455 409.303 246.195C410.884 245.847 412.499 245.493 412.838 245.875C413.504 246.627 401.694 266.159 400.062 268.63C384.534 291.945 354.319 306.213 317.342 307.706C293.328 308.685 263.812 301.97 238.212 289.753C221.845 281.873 207.344 272.221 191.816 258.698C189.112 256.367 185.988 253.709 184.868 252.776C183.749 251.89 181.092 248.86 179.04 246.062C175.589 241.399 173.631 239.72 173.631 241.306C173.631 242.005 175.869 246.295 178.434 250.538C179.46 252.217 180.112 253.383 179.879 253.196C179.646 253.01 178.9 256.367 178.201 260.657C175.916 274.412 172.139 287.981 168.315 296.421C166.217 300.991 162.193 304.403 160.981 305.336C156.505 308.74 149.803 310.27 140.524 311.203C128.774 312.368 111.474 309.757 98.2783 304.815C94.7811 303.509 85.7817 299.732 85.1755 299.312C85.1392 299.276 84.9326 297.934 84.6442 296.062C84.5629 295.534 84.4752 294.964 84.3828 294.37C82.7042 282.852 80.3727 238.508 80.3727 217.991C80.3727 209.505 80.2795 207.639 79.7199 207.639C78.5542 207.639 78.0879 208.759 77.575 212.769C76.4093 221.908 76.6424 269.61 77.9014 279.635L78.1812 281.92L76.5958 281.034C74.1711 279.635 64.9385 270.262 61.7211 265.926C58.9973 262.218 57.3784 257.47 56.1673 253.918C55.8856 253.092 55.6259 252.33 55.3796 251.662C48.6183 232.917 50.9964 211.883 60.3222 192.951C68.2492 176.818 77.9947 167.865 92.2632 163.528C94.5946 162.829 96.6463 162.083 96.8794 161.896C97.7654 161.057 92.0766 161.477 88.9525 162.456C78.7874 165.58 68.1559 174.113 60.9284 185.024C50.7633 200.319 46.1936 222.887 49.411 242.145C50.1571 246.715 53.188 256.6 54.0273 257.299C54.1016 257.374 54.4851 258.178 55.0651 259.395C56.6689 262.76 59.775 269.276 62.0009 272.221C64.7054 275.904 72.8655 283.925 76.2694 286.396L78.4143 287.935L78.7407 291.712C79.3469 298.939 79.5801 299.592 82.8441 302.017C91.0042 308.218 107.091 314 121.639 316.052C128.401 316.985 143.089 316.658 148.684 315.446ZM306.29 271.661C279.199 269.283 246.465 256.366 222.778 236.409C212.799 227.969 199.836 211.556 194.707 202.464C193.635 200.598 192.842 199.713 191.909 199.479C190.93 199.2 191.77 198.92 195.78 198.267C212.706 195.376 229.166 188.335 242.455 178.31L244.414 176.864L244.973 178.217C246.232 181.247 251.082 184.325 254.672 184.325C256.118 184.325 260.967 182.133 263.905 180.128L265.91 178.776L267.542 180.408C269.034 181.9 269.314 181.993 272.111 181.993C275.329 181.993 279.199 180.548 281.344 178.496L282.51 177.424L285.82 179.615C287.592 180.874 292.535 183.625 296.778 185.817C303.12 189.081 309.834 192.858 316.223 196.775L317.248 197.428L316.269 198.733C315.243 200.132 313.332 202.79 313.332 206.847C313.332 211.416 318.084 219.627 327.18 225.265C334.326 229.695 346.625 238.408 346.158 251.144C346.102 252.683 344.386 256.507 342.102 259.957C340.609 262.149 336.46 265.413 332.683 267.325C326.248 270.542 314.917 272.407 306.29 271.661ZM57.6643 62.3433C58.9233 62.6231 59.7626 63.0427 59.5761 63.2292C58.9699 63.8354 55.7525 63.5557 55.0064 62.8096C53.8407 61.6905 54.1205 60.8978 55.7525 60.5714C56.5918 60.4315 57.8508 59.7321 58.5503 59.0326C59.2497 58.3332 59.8559 58.0068 59.8559 58.2399C59.8559 58.8461 57.5244 60.9911 56.3587 61.4573C55.6126 61.7837 55.8458 61.9236 57.6643 62.3433ZM76.2227 63.0892C77.5749 62.3432 77.2951 61.8303 75.7098 62.0634C74.1244 62.2965 74.0311 62.11 75.0569 60.5246C75.4766 59.9185 75.7098 59.0325 75.6165 58.5662C75.4766 57.96 75.1502 58.2398 74.4041 59.7319C73.8446 60.8044 73.0519 61.6904 72.6789 61.6904C71.5131 61.6904 71.4199 62.6229 72.539 63.0426C73.9845 63.6488 75.1036 63.6488 76.2227 63.0892ZM60.089 37.6299C58.9699 37.8164 55.4727 39.2153 52.3952 40.7541C49.2711 42.2462 46.6132 43.5052 46.4267 43.4586C41.6705 42.9456 48.2919 35.0187 60.3222 26.9052C71.8395 19.1182 79.6266 15.0148 86.8541 12.9165C91.3771 11.6109 96.4597 11.4244 97.9052 12.4969C98.6979 13.103 98.4181 13.1497 94.9676 13.1963C87.5069 13.1963 78.8805 17.0199 64.8452 26.3923C57.571 31.2417 49.1312 38.1895 49.1312 39.3086C49.1312 39.5417 50.4834 39.0754 52.1621 38.3294C55.7525 36.6974 59.4362 35.858 61.0682 36.2311C62.7935 36.6974 62.4205 37.3035 60.089 37.6299ZM78.1344 41.6396C82.5176 40.7536 82.7041 40.707 82.7041 40.2407C82.7041 40.0076 81.0254 39.7744 78.9271 39.6812L75.1502 39.5413L78.6474 35.5778C80.5592 33.3862 82.7974 31.1947 83.59 30.6818C85.3153 29.5627 85.4086 28.77 84.0097 28.3037L82.9372 27.9773L84.103 27.5576C84.7558 27.3245 85.9681 27.2312 86.8075 27.3711C88.0664 27.5576 88.3462 27.4643 88.2063 26.8115C88.0664 26.1587 87.5535 26.0188 85.2687 26.0655C78.6007 26.1587 75.7564 27.9306 80.9788 28.77C82.4243 29.0031 83.6367 29.3761 83.6367 29.6093C83.6367 29.7958 83.4035 29.9823 83.1238 29.9823C82.2378 29.9823 74.7305 37.5829 73.7979 39.448C72.3524 42.1991 73.1451 42.6188 78.1344 41.6396ZM108.91 23.5474C107.557 23.6407 107.231 23.8738 107.324 24.5266L107.339 24.6216C107.391 24.9665 107.421 25.1647 107.344 25.2248C107.239 25.3061 106.939 25.1358 106.234 24.7359L106.112 24.6665C105.226 24.2002 105.133 23.9671 105.646 23.594C105.972 23.3143 106.858 22.8946 107.557 22.7547L108.863 22.4283L107.884 21.4025C107.371 20.7963 107.091 20.2367 107.231 20.0502C107.604 19.6772 112.174 20.1901 112.827 20.703C113.106 20.9362 113.526 20.8895 113.806 20.6098C114.459 19.957 115.345 20.4699 115.345 21.4957C115.345 22.0553 115.205 22.1019 114.785 21.6822C114.412 21.3092 114.086 21.3092 113.666 21.6356C113.293 21.962 113.013 21.962 112.78 21.589C112.64 21.3558 111.754 21.1227 110.821 21.1227C109.189 21.1227 109.189 21.1227 109.936 22.2418C110.679 23.4039 110.635 23.4075 108.926 23.5461L108.91 23.5474ZM101.822 11.1444C101.822 10.5382 101.263 9.46577 100.563 8.76633L99.2575 7.46072L106.252 7.74049C110.122 7.92701 114.505 8.34667 116.044 8.76633C117.583 9.13936 119.355 9.41914 120.007 9.41914C120.987 9.41914 120.8 9.23262 118.982 8.25341C115.811 6.62139 111.754 5.8287 103.967 5.26915C94.6412 4.61634 89.9317 5.5023 90.8176 7.83375C90.9575 8.30004 91.7036 8.53319 92.8227 8.53319C95.1075 8.53319 98.8378 9.88543 100.097 11.1444C101.449 12.4967 101.822 12.4967 101.822 11.1444ZM79.067 134.618C82.844 139.468 87.8333 144.97 90.1648 146.835C91.5636 147.954 92.776 148.887 92.8692 148.887C92.9159 148.887 91.89 146.742 90.5844 144.131C85.3153 133.639 82.2378 123.194 80.7923 111.164C80.4659 108.506 79.953 106.268 79.3934 105.335C78.2743 103.47 78.2743 101.046 79.4401 98.7607C80.0462 97.5483 80.3726 96.0096 80.3726 94.3309V91.7663L78.1345 94.0978C75.9429 96.3826 73.8446 97.3152 73.8446 95.9163C73.8446 94.8905 77.2951 89.9478 79.1137 88.409C80.5592 87.1967 80.7457 86.777 81.212 83.14C81.5384 80.9484 82.2844 77.0782 82.8906 74.5136C83.5434 71.949 83.9165 69.7574 83.8232 69.6642C83.4968 69.3378 72.539 81.9228 71.0468 85.9377C70.7192 86.8192 69.8345 88.3624 69.135 89.295L67.9227 90.8516C67.9227 90.8516 68.2993 93.0313 68.7154 95.7707C69.1358 98.5383 69.333 100.441 69.5087 102.135C69.7437 104.402 69.9402 106.297 70.5805 109.392C71.3266 113.216 72.0727 116.526 72.2592 116.76C72.3991 117.039 73.0053 119.184 73.6114 121.562C74.917 126.831 77.1086 132.054 79.067 134.618ZM268.288 178.729L267.309 177.75C267.309 177.75 283.561 157.101 286.473 149.493C288.696 143.687 290.004 142.04 291.768 142.04C292.755 142.04 293.561 142.265 293.934 142.825C294.587 143.804 295.216 145.016 294.376 149.166C292.978 155.881 290.833 160.311 284.398 169.87C282.906 172.061 280.994 174.486 280.155 175.325C278.196 177.144 273.79 179.009 271.226 179.429C269.594 179.662 269.127 179.569 268.288 178.729Z" fill="#00160A"/>
<path d="M397.404 224.345C403.205 208.539 402.327 205.171 401.321 204.842C401.321 204.842 399.105 206.101 398.126 208.758C396.307 213.748 390.083 226.804 387.751 229.135C385 231.887 385 231.886 382.203 231.886C379.405 231.886 371.336 227.673 370.237 223.52C368.48 216.875 376.048 193.791 376.234 192.485L374.975 191.599C374.136 192.392 363.218 225.498 348.863 216.872C347.219 215.884 343.734 211.23 343.454 208.758C341.9 201.578 349.029 176.468 350.242 171.31C351.327 166.694 356.976 162.409 363.924 162.409C374.602 162.409 373.168 171.743 377.951 175.032C380.07 176.49 383.553 173.847 384.627 173.647C390.642 172.528 392.947 173.831 397.357 177.33C400.761 180.032 403.279 185.379 406.052 187.262C407.591 188.309 409.225 186.878 409.76 186.61C411.954 185.508 416.662 186.33 417.967 187.262C419.881 188.097 424.571 192.606 425.312 195.228C428.671 207.113 418.066 233.461 414.063 238.404C407.436 246.586 391.603 240.15 397.404 224.345Z" fill="white"/>
<path fill-rule="evenodd" clip-rule="evenodd" d="M129.333 181.035C142.11 189.102 155.284 194.371 170.298 195.817C182.142 196.936 198.111 195.397 209.582 191.667C219.234 188.542 232.29 179.888 241.01 172.567C257.936 158.392 268.614 136.25 273.277 112.749C273.93 109.438 274.926 101.116 274.879 92.863C274.879 83.2574 270.652 57.0081 257.843 41.8728C231.425 10.6564 188 -3.40574 151.504 8.60943C138.339 12.9437 124.322 20.7965 113.737 31.0549C100.401 44.0644 90.5625 61.7835 86.6457 79.8755C82.5423 98.9935 87.88 121.842 97.1592 140.587C104.573 155.508 116.79 173.062 129.333 181.035ZM253.833 124.686C245.067 151.032 222.218 170.709 193.495 176.678C189.112 177.564 186.081 177.89 179.926 177.983C175.589 178.123 171.253 178.077 170.367 177.983C150.27 175.559 134.975 168.145 120.893 154.063C114.738 147.861 112.127 144.504 108.303 137.882C102.288 127.391 99.0709 116.666 98.0917 103.75C94.7344 59.4988 126.396 22.6152 170.973 18.7916C188.459 17.2995 207.857 22.6618 222.591 33.1068C228.047 36.977 237.932 46.7691 241.01 51.3387C242.269 53.1573 254.486 71.0162 256.631 81.2746C259.382 94.6105 258.309 111.304 253.833 124.686Z" fill="white"/>
<path fill-rule="evenodd" clip-rule="evenodd" d="M274.896 92.8632C274.896 124.161 260.091 158.378 240.984 172.991C231.869 179.963 219.956 188.405 209.582 191.667C194.379 196.446 170.298 195.817 170.298 195.817C170.298 195.817 194.865 192.533 203.97 188.869C230.076 178.362 244.328 162.234 253.128 146.76C270.499 116.214 274.896 92.1029 274.896 92.8632Z" fill="#E7EAEE"/>
<path fill-rule="evenodd" clip-rule="evenodd" d="M170.833 172.388C158.383 170.803 146.026 166.373 136.048 159.798C130.126 155.928 121.173 146.835 116.836 140.354C110.635 131.028 106.531 121.05 104.526 110.325C103.081 102.538 103.128 90.5541 104.573 83.6064C106.065 76.5187 107.977 71.1098 111.381 64.2553C115.344 56.3284 119.541 50.4997 125.836 44.2048C136.561 33.4801 149.011 26.6723 163.839 23.4082C168.641 22.3824 186.034 21.5431 186.64 22.3358C186.78 22.5689 187.713 23.1751 188.692 23.688C189.671 24.2475 192.282 26.206 194.427 28.1178C197.645 30.9155 199.09 32.6874 201.888 37.0705C203.8 40.0548 205.338 42.7593 205.338 42.9924C205.338 43.5054 206.831 44.4379 207.67 44.4379C208.836 44.4379 209.628 40.9408 209.861 34.7857C210.001 31.3818 210.281 28.5841 210.468 28.5841C211.12 28.5841 218.301 32.5475 221.659 34.7857C228.233 39.1689 234.808 45.3239 239.657 51.7587C241.849 54.6497 242.175 55.3958 242.175 57.1677C242.175 58.7997 242.642 60.0587 244.087 62.5766C247.724 68.9182 250.569 76.8918 252.294 85.7047C253.413 91.6266 253.413 102.818 252.247 109.019C249.077 126.085 239.657 143.058 227.394 153.83C216.996 162.922 205.945 168.518 192.889 171.269C188.412 172.248 174.983 172.901 170.833 172.388ZM137.493 140.494C137.913 140.027 138.193 139.328 138.053 139.002C138.011 138.904 137.427 138.629 136.572 138.227C134.58 137.291 131.117 135.662 129.616 133.966C123.647 127.158 121.456 122.075 120.103 111.584C118.798 101.372 119.895 94.4684 122.248 83.3731C123.396 77.9606 126.448 73.4898 128.347 70.7083C129.638 68.8171 130.396 67.7068 129.66 67.6125C127.841 67.3327 127.561 67.4726 125.65 69.2911C121.546 73.2079 119.681 76.3321 117.723 82.3472C114.692 91.7663 114.106 117.221 120.103 128.697C126.101 140.172 136.421 141.706 137.493 140.494ZM203.8 101.325C203.008 108.569 199.65 119.044 195.733 123.614C193.915 125.759 187.239 129.443 181.604 128.697C176.162 127.976 171.906 125.433 168.269 119.977C165.144 115.268 163.531 109.551 162.44 102.351C160.556 89.9188 168.781 75.4463 172.325 71.8558C175.916 68.1721 178.48 66.8665 181.744 66.8199C184.915 66.8199 186.967 67.5193 190.184 69.8042C196.059 73.9075 205.339 87.2496 203.8 101.325ZM140.944 62.7634C141.876 61.6909 142.016 61.178 141.736 59.1729C141.55 57.3078 141.177 56.5617 140.198 55.769C138.472 54.3702 136.327 54.3702 134.742 55.8623C133.623 56.9348 133.483 57.3078 133.623 59.8724C133.763 62.6235 133.856 62.81 135.395 63.6493C137.447 64.7684 139.452 64.442 140.944 62.7634ZM170.04 33.9937C161.647 40.0088 158.01 42.4802 154.233 44.8116C151.249 46.6768 150.316 46.7234 150.316 45.0448C150.316 44.1588 150.969 43.1796 152.648 41.6408L154.979 39.4959L150.456 38.8897C145.374 38.2369 140.431 36.838 139.358 35.7656C137.587 33.947 139.125 33.5274 144.161 34.46C146.399 34.833 150.736 35.2993 153.813 35.3925L159.409 35.6257L163.466 32.6881C172.372 26.2532 181.604 22.6162 186.034 23.7353C188.785 24.3881 188.459 25.1341 185.335 25.5072C181.744 25.9268 179.553 27.1392 170.04 33.9937Z" fill="white"/>
<path d="M182.024 122.309C182.024 122.075 182.304 121.842 182.677 121.842C183.05 121.842 183.516 122.075 183.656 122.309C183.796 122.588 183.516 122.775 183.003 122.775C182.444 122.775 182.024 122.588 182.024 122.309Z" fill="white"/>
<path d="M184.822 121.888C184.822 121.375 185.988 120.909 187.293 120.909C188.319 120.956 188.319 120.956 187.433 121.609C186.407 122.401 184.822 122.541 184.822 121.888Z" fill="white"/>
<path d="M177.594 120.676C177.454 120.303 177.268 119.651 177.128 119.278C176.988 118.811 177.221 118.578 177.828 118.578C178.34 118.578 178.76 118.858 178.76 119.231C178.76 119.604 178.9 120.21 179.04 120.63C179.226 121.143 179.087 121.376 178.574 121.376C178.154 121.376 177.688 121.049 177.594 120.676Z" fill="white"/>
<path d="M180.066 119.511C179.832 118.112 180.345 117.646 182.024 117.646C182.537 117.646 182.957 118.112 183.143 118.904C183.516 120.257 182.91 120.91 181.278 120.91C180.532 120.91 180.205 120.583 180.066 119.511Z" fill="white"/>
<path d="M175.309 119.744C174.424 119.044 174.424 119.044 175.403 119.044C176.009 119.044 176.429 119.324 176.429 119.744C176.429 120.583 176.429 120.583 175.309 119.744Z" fill="white"/>
<path d="M184.682 119.697C184.076 119.091 184.355 117.272 185.102 116.993C186.454 116.48 187.06 116.713 187.34 117.925C187.526 118.625 187.62 119.231 187.526 119.277C187.153 119.697 184.962 119.977 184.682 119.697Z" fill="white"/>
<path d="M188.832 118.717C188.692 118.578 188.552 117.971 188.552 117.412C188.552 116.619 188.925 116.293 190.044 116.06C191.023 115.873 191.63 115.966 191.909 116.339C192.376 117.085 192.376 118.018 191.956 118.251C191.117 118.717 189.158 118.997 188.832 118.717Z" fill="white"/>
<path d="M173.165 117.272C173.165 116.713 173.584 116.247 174.19 116.107C175.403 115.78 175.356 115.734 175.589 116.946C175.683 117.646 175.449 117.925 174.47 118.019C173.444 118.158 173.165 117.972 173.165 117.272Z" fill="white"/>
<path d="M176.708 117.319C176.055 116.62 176.475 115.314 177.361 115.314C177.967 115.314 178.294 115.64 178.294 116.2C178.294 117.086 177.221 117.832 176.708 117.319Z" fill="white"/>
<path d="M179.506 115.92C179.133 115.034 179.926 114.381 181.465 114.381C182.164 114.381 182.49 114.661 182.49 115.267C182.49 115.78 182.071 116.247 181.465 116.433C179.926 116.806 179.833 116.806 179.506 115.92Z" fill="white"/>
<path d="M192.982 115.78C193.122 115.547 193.355 115.314 193.495 115.314C193.635 115.314 193.588 115.547 193.448 115.78C193.308 116.06 193.075 116.247 192.935 116.247C192.795 116.247 192.842 116.06 192.982 115.78Z" fill="white"/>
<path d="M183.703 114.988C183.33 114.055 183.796 113.589 185.288 113.356C186.127 113.262 186.5 113.449 186.594 114.102C186.92 115.64 184.262 116.48 183.703 114.988Z" fill="white"/>
<path d="M172.512 114.195C172.092 112.656 172.185 112.516 173.398 112.516C174.051 112.516 174.563 112.703 174.563 112.936C174.563 113.169 174.703 113.682 174.843 114.055C174.983 114.521 174.703 114.801 173.911 114.941C173.025 115.127 172.698 114.941 172.512 114.195Z" fill="white"/>
<path d="M188.086 113.682C188.086 112.843 188.412 112.47 189.298 112.237C190.604 111.91 191.35 112.563 191.35 114.055C191.35 114.661 190.977 114.848 189.718 114.848C188.272 114.848 188.086 114.708 188.086 113.682Z" fill="white"/>
<path d="M171.113 113.682C170.973 113.309 171.066 112.982 171.299 112.982C171.579 112.982 171.766 113.309 171.766 113.682C171.766 114.055 171.672 114.381 171.579 114.381C171.486 114.381 171.299 114.055 171.113 113.682Z" fill="white"/>
<path d="M175.822 114.055C175.17 113.449 175.543 112.143 176.382 111.91C176.895 111.77 177.408 111.817 177.548 111.957C178.107 112.47 177.781 113.822 177.081 114.102C176.195 114.428 176.195 114.428 175.822 114.055Z" fill="white"/>
<path d="M192.469 113.728C191.956 112.376 192.516 111.35 193.821 111.21C194.8 111.07 195.08 111.257 195.08 112.003C195.08 113.542 194.567 114.381 193.635 114.381C193.122 114.381 192.609 114.101 192.469 113.728Z" fill="white"/>
<path d="M179.086 113.122C178.527 112.609 178.713 111.677 179.506 111.397C180.392 111.07 182.257 112.003 181.744 112.516C181.091 113.075 179.413 113.495 179.086 113.122Z" fill="white"/>
<path d="M183.143 111.956C182.723 111.304 184.216 110.185 185.428 110.185C185.987 110.185 186.221 110.464 186.127 110.977C185.941 111.91 183.563 112.656 183.143 111.956Z" fill="white"/>
<path d="M170.367 111.63C170.367 111.397 170.227 110.884 170.087 110.464C169.947 110.045 169.994 109.718 170.273 109.718C170.88 109.718 171.346 111.49 170.786 111.863C170.553 112.003 170.367 111.91 170.367 111.63Z" fill="white"/>
<path d="M171.626 110.558C171.346 109.532 171.906 108.786 172.978 108.786C173.584 108.786 174.19 110.605 173.817 111.211C173.305 112.004 171.859 111.537 171.626 110.558Z" fill="white"/>
<path d="M174.89 110.791C174.19 110.091 174.61 108.413 175.543 108.179C176.242 107.993 176.615 108.226 176.988 109.065C177.268 109.672 177.408 110.278 177.315 110.371C176.848 110.791 175.17 111.117 174.89 110.791Z" fill="white"/>
<path d="M187.48 110.791C186.873 110.185 187.153 109.812 188.552 109.299C189.718 108.926 190.044 108.972 190.277 109.532C190.697 110.651 188.366 111.723 187.48 110.791Z" fill="white"/>
<path d="M191.583 109.719C191.117 108.973 191.769 108.32 192.982 108.32C194.427 108.32 194.847 109.532 193.541 109.905C192.143 110.278 191.909 110.232 191.583 109.719Z" fill="white"/>
<path d="M195.547 108.599C195.547 107.9 196.386 107.154 196.759 107.527C197.085 107.853 196.432 109.252 195.966 109.252C195.733 109.252 195.547 108.972 195.547 108.599Z" fill="white"/>
<path d="M169.761 107.993C169.574 107.853 169.434 107.247 169.481 106.734C169.481 105.848 169.527 105.848 169.947 106.874C170.413 107.993 170.32 108.552 169.761 107.993Z" fill="white"/>
<path d="M170.646 107.294C170.227 105.662 170.273 105.522 171.486 105.522C172.838 105.522 173.677 107.247 172.652 107.9C171.579 108.553 170.973 108.366 170.646 107.294Z" fill="white"/>
<path d="M186.687 108.226C186.687 108.086 186.92 107.34 187.2 106.501C187.853 104.636 189.298 104.543 189.625 106.361C189.765 107.061 189.811 107.667 189.765 107.713C189.531 107.993 186.687 108.413 186.687 108.226Z" fill="white"/>
<path d="M173.957 107.061C173.771 106.921 173.631 106.361 173.631 105.848C173.631 105.102 173.771 105.056 174.33 105.522C174.703 105.848 175.03 106.408 175.03 106.734C175.03 107.434 174.47 107.62 173.957 107.061Z" fill="white"/>
<path d="M190.744 106.128C190.464 104.682 191.07 104.03 192.516 104.216C193.215 104.309 193.448 104.729 193.448 105.755C193.448 106.921 193.262 107.2 192.236 107.294C191.21 107.434 190.977 107.2 190.744 106.128Z" fill="white"/>
<path d="M195.313 106.314C194.707 104.449 194.894 103.889 196.153 103.75C197.272 103.61 197.412 103.75 197.412 104.962C197.412 105.988 197.132 106.407 196.432 106.594C195.92 106.734 195.407 106.594 195.313 106.314Z" fill="white"/>
<path d="M169.061 103.657C169.061 102.771 169.154 102.398 169.294 102.864C169.388 103.284 169.388 104.03 169.294 104.496C169.154 104.916 169.061 104.543 169.061 103.657Z" fill="white"/>
<path d="M170.227 104.263C169.621 103.703 169.901 101.885 170.647 101.605C171.719 101.185 172.232 101.698 172.232 103.237C172.232 104.216 171.999 104.589 171.393 104.589C170.926 104.589 170.367 104.449 170.227 104.263Z" fill="white"/>
<path d="M173.025 103.003C172.838 102.304 172.745 101.558 172.931 101.418C173.398 100.952 173.677 101.698 173.538 103.05L173.398 104.356L173.025 103.003Z" fill="white"/>
<path d="M188.086 102.677C188.086 102.164 188.319 101.884 188.552 102.024C188.832 102.164 189.018 102.63 189.018 103.003C189.018 103.376 188.832 103.656 188.552 103.656C188.319 103.656 188.086 103.237 188.086 102.677Z" fill="white"/>
<path d="M190.184 103.284C189.531 102.584 190.044 101.325 191.117 101.045C192.469 100.719 192.516 100.719 192.935 102.071C193.215 102.911 193.029 103.097 191.816 103.284C191.07 103.423 190.324 103.377 190.184 103.284Z" fill="white"/>
<path d="M194.474 102.397C193.961 101.931 194.101 100.392 194.614 100.392C194.894 100.392 195.08 100.206 195.08 99.926C195.08 99.6928 194.801 99.4597 194.427 99.4597C193.635 99.4597 192.982 97.1749 193.635 96.522C194.474 95.6827 195.407 96.5687 195.966 98.8535C196.293 100.066 196.619 101.465 196.759 101.931C196.945 102.537 196.759 102.724 195.873 102.724C195.267 102.724 194.614 102.584 194.474 102.397Z" fill="white"/>
<path d="M196.992 99.9259C196.666 98.527 195.826 95.7292 195.22 93.6776C194.288 90.6933 194.194 89.9472 194.707 89.6208C195.034 89.3877 195.453 89.2012 195.593 89.2012C196.106 89.2012 197.971 98.7601 197.785 100.625L197.645 102.49L196.992 99.9259Z" fill="white"/>
<path d="M168.595 99.6928C168.595 98.9467 168.688 98.6669 168.828 99.1332C168.921 99.5529 168.921 100.206 168.828 100.532C168.688 100.812 168.595 100.485 168.595 99.6928Z" fill="white"/>
<path d="M169.527 99.5998C169.714 97.9678 171.066 97.5947 171.439 99.0869C171.766 100.299 171.859 100.159 170.46 100.626C169.481 100.905 169.388 100.812 169.527 99.5998Z" fill="white"/>
<path d="M189.205 99.1803C188.832 97.828 189.625 97.0353 191.117 97.2218C192.236 97.3617 192.656 99.3668 191.723 99.973C190.557 100.719 189.485 100.393 189.205 99.1803Z" fill="white"/>
<path d="M172.232 98.8076C172.232 98.0149 172.465 97.5952 172.978 97.5952C173.444 97.5952 173.631 97.9216 173.538 98.6211C173.304 100.113 172.232 100.253 172.232 98.8076Z" fill="white"/>
<path d="M168.082 96.8489C168.082 96.336 168.222 96.1961 168.362 96.5692C168.502 96.8956 168.455 97.3152 168.315 97.4551C168.175 97.6416 168.035 97.3618 168.082 96.8489Z" fill="white"/>
<path d="M168.968 96.7087C168.968 96.0093 169.248 95.7295 169.947 95.7295C170.6 95.7295 170.833 95.9626 170.74 96.5222C170.507 97.7345 168.968 97.8744 168.968 96.7087Z" fill="white"/>
<path d="M171.532 96.2893C171.206 95.45 171.206 95.45 172.605 95.077C173.444 94.7972 173.631 94.9371 173.631 95.6365C173.631 96.7556 171.952 97.3152 171.532 96.2893Z" fill="white"/>
<path d="M188.412 95.6362C188.086 94.4704 188.692 93.8643 190.324 93.8643C191.117 93.8643 191.35 94.144 191.35 95.03C191.35 95.7294 191.07 96.1957 190.697 96.1957C190.324 96.1957 189.718 96.3356 189.345 96.4755C188.925 96.6154 188.599 96.3356 188.412 95.6362Z" fill="white"/>
<path d="M192.469 94.5637C192.096 93.6311 192.655 92.9316 193.728 92.9316C194.381 92.9316 194.614 93.258 194.614 94.0974C194.614 94.9367 194.381 95.2631 193.681 95.2631C193.168 95.2631 192.609 94.9367 192.469 94.5637Z" fill="white"/>
<path d="M168.502 93.911C168.502 92.9318 169.574 91.8127 170.04 92.3256C170.227 92.4655 170.367 93.1183 170.367 93.7245C170.367 94.4706 170.087 94.797 169.434 94.797C168.828 94.797 168.502 94.4706 168.502 93.911Z" fill="white"/>
<path d="M171.066 93.3511C170.693 92.1854 171.113 91.6725 172.698 91.4393C174.144 91.2528 174.61 92.7916 173.351 93.7242C172.139 94.6101 171.393 94.4702 171.066 93.3511Z" fill="white"/>
<path d="M187.946 93.0717C187.619 92.7919 187.48 91.0666 187.759 91.0666C187.806 91.0666 188.505 90.8801 189.345 90.647C190.744 90.2273 190.837 90.2739 190.79 91.5329C190.744 92.4655 190.464 92.9318 189.764 93.1183C188.505 93.4447 188.319 93.4447 187.946 93.0717Z" fill="white"/>
<path d="M186.221 91.9996C186.221 91.6732 186.361 91.5333 186.547 91.6732C186.687 91.8597 186.687 92.1394 186.547 92.326C186.361 92.4658 186.221 92.326 186.221 91.9996Z" fill="white"/>
<path d="M191.443 91.2533C191.583 90.4606 193.028 89.2948 193.355 89.6679C193.495 89.8078 193.728 90.3673 193.868 90.9735C194.194 91.9061 194.054 91.9993 192.749 91.9993C191.63 91.9993 191.303 91.8128 191.443 91.2533Z" fill="white"/>
<path d="M168.968 91.2071C168.968 90.974 169.201 90.5077 169.434 90.1346C169.807 89.5751 169.901 89.6217 169.901 90.5077C169.901 91.0672 169.714 91.5335 169.434 91.5335C169.201 91.5335 168.968 91.3936 168.968 91.2071Z" fill="white"/>
<path d="M170.367 90.1801C170.367 88.8745 171.346 88.4548 172.092 89.434C172.558 90.1335 172.558 90.3666 172.092 90.693C171.113 91.2992 170.367 91.1127 170.367 90.1801Z" fill="white"/>
<path d="M184.542 89.5748C183.703 88.6422 183.703 88.5956 184.495 88.8753C184.962 89.0619 185.568 89.2018 185.801 89.2018C186.034 89.2018 186.221 89.5282 186.221 89.9012C186.221 90.8804 185.568 90.7871 184.542 89.5748Z" fill="white"/>
<path d="M174.517 89.5279C172.512 87.9891 172.232 84.5386 174.097 84.5386C175.356 84.5386 176.522 86.497 176.335 88.3155C176.195 89.9942 175.636 90.3672 174.517 89.5279Z" fill="white"/>
<path d="M187.293 89.808C187.48 89.6682 187.759 89.6682 187.946 89.808C188.086 89.9946 187.946 90.1344 187.62 90.1344C187.293 90.1344 187.153 89.9946 187.293 89.808Z" fill="white"/>
<path d="M194.334 87.9892C194.474 87.5696 194.614 87.1499 194.614 87.0566C194.614 86.9634 194.847 86.8701 195.08 86.8701C195.36 86.8701 195.546 87.2898 195.546 87.8027C195.546 88.3622 195.22 88.7353 194.8 88.7353C194.287 88.7353 194.147 88.5021 194.334 87.9892Z" fill="white"/>
<path d="M169.9 87.8493C169.9 86.7768 170.88 85.0049 171.439 85.0049C172.418 85.0049 171.719 87.9891 170.693 88.1757C170.273 88.2689 169.9 88.129 169.9 87.8493Z" fill="white"/>
<path d="M180.392 87.3361L178.993 87.0097L180.252 86.6833C181.558 86.3103 182.49 86.5901 182.49 87.3827C182.49 87.849 182.444 87.849 180.392 87.3361Z" fill="white"/>
<path d="M178.76 85.0982C178.76 83.1864 179.832 82.9067 180.812 84.5853C181.464 85.7044 181.511 85.9376 180.905 85.9376C180.532 85.9376 179.926 86.0774 179.506 86.2173C178.947 86.4505 178.76 86.1707 178.76 85.0982Z" fill="white"/>
<path d="M186.874 85.751C184.775 84.8184 183.423 82.3471 183.423 79.4095C183.423 77.3112 183.609 76.7982 184.868 75.6325C185.661 74.8865 186.454 74.2803 186.687 74.2803C187.713 74.2803 191.49 77.8707 192.749 80.1089L194.194 82.6735L192.656 84.3055C190.884 86.1707 188.925 86.6836 186.874 85.751Z" fill="white"/>
<path d="M177.128 84.5386C176.988 84.3054 177.081 84.0723 177.314 84.0723C177.594 84.0723 177.827 84.3054 177.827 84.5386C177.827 84.8183 177.734 85.0048 177.641 85.0048C177.501 85.0048 177.268 84.8183 177.128 84.5386Z" fill="white"/>
<path d="M171.02 83.7924C171.159 83.3728 171.299 82.9531 171.299 82.8599C171.299 82.7666 171.719 82.6733 172.232 82.6733C173.398 82.6733 173.444 83.4194 172.279 84.0722C171.02 84.725 170.693 84.6784 171.02 83.7924Z" fill="white"/>
<path d="M174.703 83.2334C173.631 83.0935 173.304 82.4873 174.004 82.0677C174.19 81.9278 175.03 81.6946 175.869 81.5081C177.128 81.2284 177.361 81.3216 177.361 82.1143C177.361 83.0935 176.382 83.5132 174.703 83.2334Z" fill="white"/>
<path d="M178.294 81.6479C178.294 81.0883 178.34 80.7619 178.434 80.8552C178.48 80.9484 178.853 81.4147 179.18 81.881C179.739 82.5338 179.693 82.6737 179.04 82.6737C178.573 82.6737 178.294 82.3007 178.294 81.6479Z" fill="white"/>
<path d="M171.766 81.3213C171.766 81.0415 171.999 80.7151 172.232 80.5753C172.512 80.4354 172.698 80.6219 172.698 80.9949C172.698 81.4146 172.512 81.741 172.232 81.741C171.999 81.741 171.766 81.5545 171.766 81.3213Z" fill="white"/>
<path d="M173.491 80.6219C173.118 79.6893 176.429 78.6635 176.988 79.5494C177.408 80.2955 176.988 80.6219 175.216 80.9949C174.144 81.2281 173.678 81.1348 173.491 80.6219Z" fill="white"/>
<path d="M177.874 79.1297C177.874 78.6168 178.014 78.4769 178.154 78.8499C178.294 79.1763 178.247 79.596 178.107 79.7359C177.967 79.9224 177.827 79.6426 177.874 79.1297Z" fill="white"/>
<path d="M173.911 78.3837C174.47 77.3578 176.102 75.6792 176.522 75.6792C176.988 75.6792 177.035 77.8708 176.568 78.1505C176.335 78.2438 175.589 78.4769 174.89 78.6635C173.864 78.8966 173.631 78.85 173.911 78.3837Z" fill="white"/>
<path d="M177.641 77.3114C177.128 75.9125 177.361 75.3064 178.48 75.1198C179.646 74.8867 179.646 74.8867 178.9 76.3322C177.967 78.1974 178.014 78.1974 177.641 77.3114Z" fill="white"/>
<path d="M177.361 74.5131C177.361 74.4199 178.294 73.7671 179.459 73.1143C180.858 72.275 181.837 71.9952 182.537 72.1817C183.376 72.4615 183.143 72.648 181.091 73.6272C178.807 74.653 177.361 75.0261 177.361 74.5131Z" fill="white"/>
<path d="M203.24 33.2001C201.981 31.3815 199.323 28.4439 197.412 26.672C195.5 24.9001 194.241 23.4546 194.614 23.4546C195.64 23.4546 203.473 25.5995 205.432 26.4389C207.064 27.1383 207.111 27.2315 206.691 28.677C206.458 29.5164 206.271 31.6147 206.271 33.34C206.271 35.1119 206.131 36.5107 205.945 36.5107C205.712 36.5107 204.546 35.0186 203.24 33.2001Z" fill="white"/>
<path d="M108.35 174.439C106.438 173.46 106.019 172.9 103.594 168.098C100.097 161.29 100.004 159.704 103.314 163.575C104.62 165.113 107.651 168.284 110.029 170.616C114.086 174.532 114.272 174.812 112.92 174.626C111.941 174.486 111.568 174.579 111.801 174.952C112.36 175.791 110.588 175.558 108.35 174.439Z" fill="white"/>
<path fill-rule="evenodd" clip-rule="evenodd" d="M186.495 259.394C186.108 258.474 186.539 257.416 187.459 257.029L188.463 256.602C198.231 252.423 203.837 249.913 207.646 245.926C211.456 241.94 211.912 236.085 212.627 232.522C212.824 231.544 215.038 233.261 216.015 233.458C216.993 233.654 217.627 234.606 217.43 235.584C216.57 239.867 214.252 243.951 210.522 247.828C206.804 251.692 199.606 255.833 188.86 260.357C187.941 260.744 186.882 260.313 186.495 259.394Z" fill="#00160A"/>
<path fill-rule="evenodd" clip-rule="evenodd" d="M230.665 73.3433C231.522 72.8331 232.63 73.1143 233.14 73.9713C238.248 82.5518 240.984 92.3604 240.984 102.565C240.984 133.482 215.921 158.545 185.005 158.545C176.79 158.545 168.822 156.773 161.525 153.397C160.62 152.978 157.201 149.644 160.644 151C164.088 152.356 177.412 155.4 185.101 155.4C214.023 155.4 234.483 131.487 234.483 102.565C234.483 93.0152 230.665 84.5384 230.037 75.8186C229.964 74.8078 229.808 73.8534 230.665 73.3433Z" fill="#00160A"/>
<path fill-rule="evenodd" clip-rule="evenodd" d="M51.8237 210.014C52.462 209.248 53.6006 207.699 54.3669 208.338C57.5106 210.956 60.8652 213.99 64.4536 214.575C68.1877 215.185 72.6176 215.185 77.7375 214.565C78.7276 214.445 79.6274 215.151 79.7473 216.141C79.8671 217.131 79.1617 218.03 78.1716 218.15C72.7345 218.809 67.9698 218.809 63.872 218.14C59.6284 217.447 55.682 215.578 52.0555 212.557C51.2892 211.919 51.1854 210.78 51.8237 210.014Z" fill="#00160A"/>
<path d="M90.1647 146.836C87.8332 144.97 82.8439 139.468 79.067 134.619C77.1085 132.054 74.917 126.832 73.6114 121.563C73.0052 119.185 72.399 117.04 72.2591 116.76C72.0726 116.527 71.3265 113.216 70.5805 109.392C69.4614 103.983 69.6981 102.241 68.7153 95.771C68.2992 93.0316 67.9226 90.8519 67.9226 90.8519L69.135 89.2953C69.8344 88.3627 70.7192 86.8195 71.0468 85.938C72.5389 81.9231 83.4967 69.338 83.8231 69.6644C83.9164 69.7577 83.5433 71.9493 82.8905 74.5139C82.2844 77.0785 81.5383 80.9487 81.2119 83.1402C80.7456 86.7773 80.5591 87.197 79.1136 88.4093C77.2951 89.9481 73.8445 94.8908 73.8445 95.9166C73.8445 97.3155 75.9428 96.3829 78.1344 94.0981L80.3726 91.7666V94.3312C80.3726 96.0099 80.0462 97.5486 79.44 98.761C78.2743 101.046 78.2743 103.471 79.3934 105.336C79.9529 106.268 80.4658 108.506 80.7922 111.164C82.2377 123.195 85.3153 133.64 90.5843 144.131C91.89 146.742 92.9158 148.887 92.8692 148.887C92.7759 148.887 91.5635 147.955 90.1647 146.836Z" fill="white"/>
<path fill-rule="evenodd" clip-rule="evenodd" d="M284.188 175.606L287.546 177.098C288.242 177.419 295.921 181.109 305.146 185.542C320.019 192.688 338.909 201.765 339.024 201.765C339.211 201.765 340.086 199.741 340.283 197.382C340.749 192.299 342.475 185.398 344.48 180.595C345.412 178.45 346.158 175.769 346.158 175.536C346.158 175.43 345.4 175.124 344.159 174.624C342.682 174.028 340.52 173.156 338.138 172.015C326.388 166.373 303.399 154.856 300.555 153.131C297.757 151.499 297.198 151.359 297.198 152.431C297.198 153.83 294.353 160.312 292.162 163.809C290.996 165.72 288.711 169.171 287.079 171.456L284.188 175.606ZM338.231 193.371C339.569 194.146 337.252 195.283 336.693 195.47C333.398 195.749 329.519 195.13 326.341 193.278C324.679 192.1 311.595 184.831 302.916 180.009C298.948 177.804 295.9 176.111 295.286 175.746C293.328 174.58 291.462 173.321 291.136 172.948C290.157 171.689 291.089 171.129 293.84 171.362C295.494 171.503 335.343 191.697 338.231 193.371Z" fill="white"/>
<path d="M250.708 179.802C249.496 179.382 248.19 178.45 247.351 177.377L245.952 175.652L250.895 170.756C258.495 163.295 264.091 155.142 269.127 146.049C270.806 143.018 275.795 130.795 276.401 129.442C277.334 127.484 278.033 126.738 280.038 125.619C282.416 124.22 285.121 123.754 286.286 124.546C288.525 126.038 288.525 130.748 286.286 138.861C283.815 147.768 280.504 154.156 273.65 163.342C272.577 164.741 270.572 167.492 269.127 169.403C265.257 174.533 262.739 177.004 259.335 178.916C255.978 180.781 254.019 181.014 250.708 179.802Z" fill="white"/>
<path d="M268.288 178.73L267.308 177.751C267.308 177.751 283.561 157.102 286.473 149.493C288.695 143.687 290.003 142.041 291.768 142.041C292.755 142.041 293.561 142.266 293.934 142.825C294.586 143.805 295.216 145.017 294.376 149.167C292.977 155.881 290.832 160.311 284.398 169.87C282.905 172.062 280.994 174.486 280.154 175.326C278.196 177.144 273.79 179.009 271.225 179.429C269.593 179.662 269.127 179.569 268.288 178.73Z" fill="white"/>
<path fill-rule="evenodd" clip-rule="evenodd" d="M295.587 157.138C296.528 154.987 297.198 153.11 297.198 152.431C297.198 151.359 297.757 151.499 300.555 153.131C303.399 154.856 326.387 166.373 338.138 172.015C342.521 174.114 346.158 175.303 346.158 175.536C346.158 175.769 294.59 159.419 295.587 157.138Z" fill="#E7EAEE"/>
<path fill-rule="evenodd" clip-rule="evenodd" d="M136.048 159.798C130.126 155.928 121.173 146.835 116.836 140.354C110.635 131.028 106.531 121.049 104.526 110.325C103.081 102.537 103.127 90.5538 104.573 83.6061C106.065 76.5184 107.977 71.1095 111.381 64.255C115.344 56.328 119.541 50.4994 125.836 44.2045C132.009 38.0315 104.573 63.5595 111.381 109.235C116.836 147.51 140.283 162.588 136.048 159.798Z" fill="#E7EAEE"/>
</svg>
