<svg width="162" height="558" viewBox="0 0 162 558" fill="none" xmlns="http://www.w3.org/2000/svg">
<path fill-rule="evenodd" clip-rule="evenodd" d="M-299.492 124.571C-260.668 89.4194 -198.466 110.971 -146.417 116.786C-100.797 121.883 -51.5791 124.799 -17.9328 156.026C14.1436 185.796 7.63021 236.575 25.6312 276.464C46.7032 323.157 110.476 359.6 96.1294 408.778C81.8539 457.711 9.72266 455.495 -34.1628 481.423C-71.5546 503.515 -98.2563 547.434 -141.648 549.26C-185.357 551.1 -222.883 519.87 -255.523 490.741C-285.219 464.238 -305.499 430.105 -317.638 392.198C-329.616 354.795 -326.491 316.61 -323.834 277.425C-320.256 224.659 -338.697 160.069 -299.492 124.571Z" fill="url(#paint0_linear)"/>
<path fill-rule="evenodd" clip-rule="evenodd" d="M-288.498 126.557C-249.674 91.4058 -187.472 112.958 -135.423 118.772C-89.8026 123.869 -40.5851 126.785 -6.93882 158.012C25.1376 187.782 18.6242 238.561 36.6252 278.45C57.6971 325.144 121.47 361.586 107.123 410.764C92.8479 459.697 20.7166 457.481 -23.1689 483.409C-60.5607 505.501 -87.2624 549.42 -130.654 551.247C-174.363 553.087 -211.889 521.856 -244.529 492.727C-274.225 466.225 -294.505 432.091 -306.644 394.185C-318.622 356.781 -315.497 318.596 -312.84 279.411C-309.262 226.645 -327.703 162.055 -288.498 126.557Z" fill="url(#paint1_linear)"/>
<defs>
<linearGradient id="paint0_linear" x1="154.376" y1="52.9122" x2="-192.454" y2="660.312" gradientUnits="userSpaceOnUse">
<stop stop-color="#4D71A8"/>
<stop offset="1" stop-color="white" stop-opacity="0"/>
</linearGradient>
<linearGradient id="paint1_linear" x1="165.37" y1="54.8985" x2="-181.46" y2="662.298" gradientUnits="userSpaceOnUse">
<stop stop-color="#4D71A8"/>
<stop offset="1" stop-color="white" stop-opacity="0"/>
</linearGradient>
</defs>
</svg>
