<svg width="170" height="357" viewBox="0 0 170 357" fill="none" xmlns="http://www.w3.org/2000/svg">
<path fill-rule="evenodd" clip-rule="evenodd" d="M-281.492 124.571C-242.668 89.4194 -180.466 110.971 -128.417 116.786C-82.7965 121.883 -33.5791 124.799 0.067218 156.026C32.1436 185.796 25.6302 236.575 43.6312 276.464C64.7032 323.157 128.476 359.6 114.129 408.778C99.8539 457.711 27.7227 455.495 -16.1628 481.423C-53.5546 503.515 -80.2563 547.434 -123.648 549.26C-167.357 551.1 -204.883 519.87 -237.523 490.741C-267.219 464.238 -287.499 430.105 -299.638 392.198C-311.616 354.795 -308.491 316.61 -305.834 277.425C-302.256 224.659 -320.697 160.069 -281.492 124.571Z" fill="url(#paint0_linear)"/>
<path fill-rule="evenodd" clip-rule="evenodd" d="M-292.485 126.557C-253.662 91.4058 -191.46 112.958 -139.411 118.772C-93.7904 123.869 -44.573 126.785 -10.9267 158.012C21.1497 187.782 14.6363 238.561 32.6373 278.45C53.7093 325.144 117.483 361.586 103.135 410.764C88.86 459.697 16.7288 457.481 -27.1567 483.409C-64.5485 505.501 -91.2502 549.42 -134.642 551.247C-178.351 553.087 -215.877 521.856 -248.517 492.727C-278.213 466.225 -298.493 432.091 -310.632 394.185C-322.61 356.781 -319.485 318.596 -316.828 279.411C-313.25 226.645 -331.69 162.055 -292.485 126.557Z" fill="url(#paint1_linear)"/>
<defs>
<linearGradient id="paint0_linear" x1="172.376" y1="52.9122" x2="-174.454" y2="660.312" gradientUnits="userSpaceOnUse">
<stop stop-color="#4D71A8"/>
<stop offset="1" stop-color="white" stop-opacity="0"/>
</linearGradient>
<linearGradient id="paint1_linear" x1="161.382" y1="54.8985" x2="-185.447" y2="662.298" gradientUnits="userSpaceOnUse">
<stop stop-color="#4D71A8"/>
<stop offset="1" stop-color="white" stop-opacity="0"/>
</linearGradient>
</defs>
</svg>
