<svg width="176" height="519" viewBox="0 0 176 519" fill="none" xmlns="http://www.w3.org/2000/svg">
<path fill-rule="evenodd" clip-rule="evenodd" d="M-358.94 114.462C-296.612 79.6262 -220.554 127.277 -153.177 150.914C-94.1209 171.632 -29.6192 190.552 5.53909 242.328C39.0569 291.688 14.8797 357.164 26.6029 415.666C40.326 484.148 113.918 552.063 79.8222 613.018C45.8962 673.669 -49.2642 648.674 -115.499 669.708C-171.934 687.629 -220.837 737.82 -279.048 726.982C-337.685 716.065 -377.998 663.099 -412.46 614.418C-443.814 570.127 -460.324 518.576 -464.865 464.5C-469.345 411.142 -453.52 361.362 -438.011 310.111C-417.126 241.097 -421.882 149.641 -358.94 114.462Z" fill="url(#paint0_linear)"/>
<path fill-rule="evenodd" clip-rule="evenodd" d="M-344.94 120.462C-282.612 85.6262 -206.554 133.277 -139.177 156.914C-80.1209 177.632 -15.6192 196.552 19.5391 248.328C53.0569 297.688 28.8797 363.164 40.6029 421.666C54.326 490.148 127.918 558.063 93.8222 619.018C59.8962 679.669 -35.2642 654.674 -101.499 675.708C-157.934 693.629 -206.837 743.82 -265.048 732.982C-323.685 722.065 -363.998 669.099 -398.46 620.418C-429.814 576.127 -446.324 524.576 -450.865 470.5C-455.345 417.142 -439.52 367.362 -424.011 316.111C-403.126 247.097 -407.882 155.641 -344.94 120.462Z" fill="url(#paint1_linear)"/>
<defs>
<linearGradient id="paint0_linear" x1="266" y1="158" x2="-380.5" y2="859" gradientUnits="userSpaceOnUse">
<stop stop-color="#4D71A8"/>
<stop offset="1" stop-color="white" stop-opacity="0"/>
</linearGradient>
<linearGradient id="paint1_linear" x1="280" y1="164" x2="-366.5" y2="865" gradientUnits="userSpaceOnUse">
<stop stop-color="#4D71A8"/>
<stop offset="1" stop-color="white" stop-opacity="0"/>
</linearGradient>
</defs>
</svg>
