<svg width="480" height="210" viewBox="0 0 480 210" fill="none" xmlns="http://www.w3.org/2000/svg">
<path fill-rule="evenodd" clip-rule="evenodd" d="M693.092 434.731C680.843 487.728 657.735 535.789 623.028 577.672C581.421 627.882 540.111 696.58 474.917 698.018C409.549 699.459 370.78 626.721 320.998 584.333C279.718 549.186 241.324 515.422 209.184 471.76C165.376 412.245 82.6041 356.482 100.497 284.781C118.376 213.14 219.814 207.126 284.231 171.036C334.26 143.007 378.32 105.93 435.022 97.3619C495.534 88.2175 562.479 86.1732 612.504 121.429C661.713 156.111 677.159 220.28 692.156 278.584C705.448 330.258 705.107 382.746 693.092 434.731Z" fill="url(#paint0_linear)"/>
<path fill-rule="evenodd" clip-rule="evenodd" d="M669.092 434.731C656.843 487.728 633.735 535.789 599.028 577.672C557.421 627.882 516.111 696.58 450.917 698.018C385.549 699.459 346.78 626.721 296.998 584.333C255.718 549.186 217.324 515.422 185.184 471.76C141.376 412.245 58.6041 356.482 76.4972 284.781C94.3756 213.14 195.814 207.126 260.231 171.036C310.26 143.007 354.32 105.93 411.022 97.3619C471.534 88.2175 538.479 86.1732 588.504 121.429C637.713 156.111 653.159 220.28 668.156 278.584C681.448 330.258 681.107 382.746 669.092 434.731Z" fill="url(#paint1_linear)"/>
<defs>
<linearGradient id="paint0_linear" x1="541" y1="349" x2="135.5" y2="19.5" gradientUnits="userSpaceOnUse">
<stop stop-color="#4D71A8"/>
<stop offset="1" stop-color="white" stop-opacity="0"/>
</linearGradient>
<linearGradient id="paint1_linear" x1="517" y1="349" x2="111.5" y2="19.5" gradientUnits="userSpaceOnUse">
<stop stop-color="#4D71A8"/>
<stop offset="1" stop-color="white" stop-opacity="0"/>
</linearGradient>
</defs>
</svg>
