<svg width="344" height="404" viewBox="0 0 344 404" fill="none" xmlns="http://www.w3.org/2000/svg">
<path fill-rule="evenodd" clip-rule="evenodd" d="M519.184 -72.7254C540.077 -43.4287 553.766 -10.9142 559.31 24.64C565.957 67.2634 581.894 117.842 554.035 150.778C526.101 183.802 473.065 171.135 430.242 177.228C394.734 182.279 361.175 186.507 325.453 183.298C276.762 178.924 212.853 195.502 185.165 155.211C157.499 114.954 198.976 62.0511 209.324 14.3129C217.36 -22.7624 218.297 -60.8452 238.901 -92.6983C260.89 -126.692 289.217 -160.762 328.612 -170.1C367.364 -179.285 405.932 -158.817 441.397 -140.695C472.829 -124.635 498.689 -101.463 519.184 -72.7254Z" fill="url(#paint0_linear)"/>
<path fill-rule="evenodd" clip-rule="evenodd" d="M508.665 -60.8323C529.559 -31.5357 543.248 0.978822 548.792 36.5331C555.438 79.1564 571.376 129.735 543.516 162.671C515.582 195.695 462.547 183.028 419.724 189.121C384.215 194.172 350.657 198.4 314.935 195.191C266.244 190.817 202.335 207.395 174.646 167.104C146.981 126.847 188.458 73.9441 198.805 26.2059C206.842 -10.8693 207.779 -48.9521 228.383 -80.8052C250.372 -114.799 278.699 -148.869 318.093 -158.207C356.846 -167.392 395.414 -146.923 430.879 -128.802C462.31 -112.742 488.171 -89.5695 508.665 -60.8323Z" fill="url(#paint1_linear)"/>
<defs>
<linearGradient id="paint0_linear" x1="410.044" y1="-34.9307" x2="69.0479" y2="21.6024" gradientUnits="userSpaceOnUse">
<stop stop-color="#4D71A8"/>
<stop offset="1" stop-color="white" stop-opacity="0"/>
</linearGradient>
<linearGradient id="paint1_linear" x1="399.526" y1="-23.0376" x2="58.5296" y2="33.4954" gradientUnits="userSpaceOnUse">
<stop stop-color="#4D71A8"/>
<stop offset="1" stop-color="white" stop-opacity="0"/>
</linearGradient>
</defs>
</svg>
