<svg width="106" height="251" viewBox="0 0 106 251" fill="none" xmlns="http://www.w3.org/2000/svg">
<path fill-rule="evenodd" clip-rule="evenodd" d="M-292.485 20.5574C-253.662 -14.5942 -191.46 6.9578 -139.411 12.7725C-93.7904 17.8691 -44.573 20.7852 -10.9267 52.0122C21.1497 81.7823 14.6363 132.561 32.6373 172.45C53.7093 219.144 117.483 255.586 103.135 304.764C88.86 353.697 16.7288 351.481 -27.1567 377.409C-64.5485 399.501 -91.2502 443.42 -134.642 445.247C-178.351 447.087 -215.877 415.856 -248.517 386.727C-278.213 360.225 -298.493 326.091 -310.632 288.185C-322.61 250.781 -319.485 212.596 -316.828 173.411C-313.25 120.645 -331.69 56.0548 -292.485 20.5574Z" fill="url(#paint0_linear)"/>
<defs>
<linearGradient id="paint0_linear" x1="161.382" y1="-51.1015" x2="-185.447" y2="556.298" gradientUnits="userSpaceOnUse">
<stop stop-color="#4D71A8"/>
<stop offset="1" stop-color="white" stop-opacity="0"/>
</linearGradient>
</defs>
</svg>
