<?xml version="1.0" standalone="no"?>
<!DOCTYPE svg PUBLIC "-//W3C//DTD SVG 20010904//EN"
 "http://www.w3.org/TR/2001/REC-SVG-20010904/DTD/svg10.dtd">
<svg version="1.0" xmlns="http://www.w3.org/2000/svg"
 width="500.000000pt" height="500.000000pt" viewBox="0 0 500.000000 500.000000"
 preserveAspectRatio="xMidYMid meet">
<metadata>
Created by potrace 1.11, written by Peter Selinger 2001-2013
</metadata>
<g transform="translate(0.000000,500.000000) scale(0.100000,-0.100000)"
fill="#000000" stroke="none">
<path d="M1993 3840 c-118 -45 -145 -62 -167 -108 -20 -42 -20 -65 1 -109 20
-42 66 -73 109 -73 30 0 32 -2 43 -57 16 -84 16 -86 -46 -130 -32 -22 -81 -61
-109 -86 l-51 -46 -42 19 c-32 16 -41 26 -41 46 0 33 -16 63 -49 91 -20 18
-38 23 -80 23 -50 0 -57 -3 -90 -38 -70 -73 -101 -131 -101 -185 0 -42 5 -54
33 -82 41 -41 77 -51 126 -37 33 11 38 10 64 -16 l28 -28 -29 -65 c-33 -74
-68 -178 -76 -230 -6 -36 -7 -37 -81 -54 l-74 -18 -26 31 c-66 78 -192 60
-231 -34 -20 -49 -19 -236 2 -280 46 -98 195 -97 244 2 l16 30 68 -17 c71 -18
86 -29 86 -65 0 -27 35 -58 55 -50 9 3 13 2 10 -4 -3 -6 -1 -10 5 -10 6 0 9
-4 5 -9 -3 -5 -1 -12 4 -15 13 -8 9 -26 -11 -55 -16 -22 -16 -27 -2 -60 9 -20
18 -41 20 -47 7 -16 -77 -110 -95 -106 -97 17 -159 -11 -187 -84 -20 -53 -14
-80 32 -151 70 -104 130 -131 207 -94 44 21 66 51 85 116 7 24 19 34 70 53
l62 24 56 -51 c30 -28 84 -69 119 -93 64 -42 65 -43 64 -88 0 -25 -3 -63 -7
-85 -6 -33 -12 -40 -37 -45 -123 -26 -159 -188 -58 -264 39 -29 182 -79 240
-83 48 -4 55 -2 82 24 29 30 51 87 51 133 0 31 -35 110 -49 110 -10 0 39 84
74 126 19 23 23 24 74 14 72 -14 180 -12 271 5 86 15 85 15 135 -59 l34 -51
-20 -31 c-52 -85 12 -194 115 -194 42 0 221 72 253 102 62 58 48 164 -26 206
-21 12 -50 22 -64 22 -23 0 -26 5 -38 72 -10 58 -10 73 0 76 16 5 152 113 170
135 17 21 31 21 76 0 21 -10 35 -24 35 -35 0 -54 66 -124 120 -128 69 -6 91 1
131 37 56 51 82 105 76 160 -9 86 -82 141 -171 130 -37 -4 -44 -2 -68 28 l-27
32 18 36 c10 20 26 54 34 76 17 42 39 51 122 51 38 0 45 -4 68 -38 46 -70 113
-86 183 -43 41 25 59 67 79 191 16 96 17 108 2 142 -19 46 -69 78 -120 78 -37
0 -97 -23 -97 -38 0 -4 -7 -15 -14 -25 -13 -17 -17 -17 -80 12 l-66 30 0 63
c-1 35 -7 92 -15 128 -19 86 -19 83 13 102 24 14 30 14 52 2 33 -17 104 -18
138 0 81 42 100 118 58 231 -39 102 -77 135 -156 135 -70 0 -131 -46 -145
-110 -5 -22 -14 -30 -38 -36 -19 -4 -33 -2 -35 4 -23 69 -112 83 -112 18 0
-32 57 -115 82 -121 31 -8 180 22 190 37 4 7 7 31 6 52 -2 60 50 88 91 47 27
-27 54 -126 42 -150 -21 -38 -58 -40 -95 -6 -15 14 -33 25 -41 25 -17 0 -124
-71 -149 -99 -19 -21 -19 -24 -3 -99 9 -42 20 -122 23 -176 5 -75 11 -102 24
-113 29 -25 220 -104 243 -101 19 3 28 16 57 78 10 22 47 24 58 3 12 -22 -23
-213 -41 -225 -7 -5 -21 -7 -32 -6 -15 2 -21 12 -23 40 -5 59 -24 66 -155 61
-158 -6 -154 -4 -183 -71 -14 -31 -38 -83 -55 -115 -16 -32 -29 -66 -29 -76 0
-22 108 -157 132 -166 9 -3 31 1 49 10 39 21 76 12 91 -21 10 -21 7 -30 -18
-67 -23 -32 -37 -43 -61 -45 -39 -4 -68 31 -58 71 9 33 -17 56 -100 90 -94 39
-106 37 -183 -33 -37 -33 -93 -77 -124 -98 -80 -53 -83 -61 -64 -172 9 -52 16
-104 16 -117 0 -13 11 -35 25 -49 21 -21 28 -23 45 -14 12 6 33 10 48 8 23 -2
27 -8 27 -32 0 -28 -5 -32 -94 -68 -93 -38 -124 -41 -135 -13 -8 22 2 41 30
53 37 18 31 55 -23 130 -27 37 -56 79 -65 94 -34 54 -54 60 -144 42 -43 -8
-116 -16 -160 -17 l-81 -1 -71 53 c-85 62 -191 174 -249 261 -42 62 -42 63
-24 86 66 84 8 223 -99 240 -22 4 -40 12 -40 18 0 6 -13 18 -29 28 -64 36 -79
145 -32 222 16 25 21 50 21 101 l0 67 31 -27 c64 -53 108 -69 194 -69 65 0 90
5 130 25 41 19 51 29 53 53 4 34 43 69 86 76 66 11 107 171 72 278 -20 59 -74
117 -135 145 -56 25 -178 27 -234 4 l-37 -16 12 22 c20 39 86 124 140 182 46
49 61 58 113 71 33 7 87 14 121 14 33 0 68 6 77 13 19 13 67 134 67 166 0 10
-16 31 -35 45 -72 55 -32 125 62 111 57 -8 83 -29 83 -65 0 -27 -26 -60 -48
-60 -25 0 -33 -39 -23 -116 11 -86 27 -110 80 -120 49 -9 156 -50 210 -80 24
-13 52 -24 61 -24 15 0 108 64 130 89 3 3 26 23 53 44 55 45 59 66 17 104 -32
28 -38 51 -18 71 20 20 36 14 116 -49 84 -66 95 -79 86 -103 -9 -23 -38 -28
-69 -12 -15 8 -34 12 -43 9 -19 -8 -122 -223 -122 -256 0 -31 40 -77 68 -77
31 0 57 42 42 69 -8 17 -5 33 19 86 29 63 31 65 66 65 105 0 170 115 113 200
-13 18 -63 64 -113 102 -83 63 -94 68 -139 68 -44 0 -53 -4 -88 -40 -33 -36
-38 -47 -38 -88 0 -26 7 -57 15 -69 14 -20 12 -24 -41 -66 l-57 -45 -61 27
c-34 15 -86 36 -116 46 -88 30 -104 69 -50 120 59 56 60 148 4 209 -38 41 -83
56 -165 56 -71 0 -72 0 -115 -44 -44 -44 -50 -61 -45 -131 1 -16 14 -47 28
-67 38 -56 27 -85 -35 -93 -26 -3 -71 -10 -101 -15 -30 -6 -55 -9 -56 -7 -1 1
-20 28 -42 61 l-40 58 19 36 c37 73 13 148 -56 182 -23 11 -49 20 -57 20 -8
-1 -60 -18 -116 -40z m130 -67 c-7 -2 -19 -2 -25 0 -7 3 -2 5 12 5 14 0 19 -2
13 -5z m-36 -125 c-3 -7 -5 -2 -5 12 0 14 2 19 5 13 2 -7 2 -19 0 -25z m-510
-444 c-3 -3 -12 -4 -19 -1 -8 3 -5 6 6 6 11 1 17 -2 13 -5z m300 -316 c-3 -8
-6 -5 -6 6 -1 11 2 17 5 13 3 -3 4 -12 1 -19z m0 -90 c-3 -8 -6 -5 -6 6 -1 11
2 17 5 13 3 -3 4 -12 1 -19z m-63 -108 c39 -14 53 -53 32 -85 -9 -14 -23 -25
-31 -25 -17 0 -35 30 -35 60 0 25 -22 35 -48 21 -35 -18 -57 -96 -57 -196 0
-174 56 -243 151 -185 18 12 35 17 38 12 16 -25 -65 -72 -125 -72 -87 0 -138
56 -160 176 -32 170 39 304 162 304 26 0 59 -4 73 -10z m-477 -176 c-3 -3 -12
-4 -19 -1 -8 3 -5 6 6 6 11 1 17 -2 13 -5z m620 -1196 c-3 -8 -6 -5 -6 6 -1
11 2 17 5 13 3 -3 4 -12 1 -19z"/>
<path d="M2558 3259 c-25 -14 -22 -55 4 -73 63 -44 154 17 102 68 -17 18 -80
21 -106 5z"/>
<path d="M2863 3159 c-43 -13 -100 -70 -112 -113 -36 -133 127 -242 263 -176
48 23 96 90 96 132 0 113 -125 192 -247 157z"/>
<path d="M2707 2652 c-35 -38 -15 -69 45 -74 61 -4 89 40 50 75 -25 22 -75 21
-95 -1z"/>
<path d="M2966 2523 c-14 -4 -17 -11 -12 -35 3 -17 6 -42 6 -56 0 -24 1 -24
18 -9 10 10 26 17 35 17 13 0 17 10 17 45 0 47 -8 52 -64 38z"/>
<path d="M2409 2493 c-10 -2 -20 -26 -28 -67 -21 -104 -61 -149 -121 -133 -49
13 1 -107 61 -149 102 -70 236 -38 288 69 30 63 28 75 -16 79 l-38 3 -3 82
c-3 79 -4 84 -30 97 -31 15 -90 26 -113 19z"/>
<path d="M3110 2387 c0 -58 -3 -114 -6 -124 -3 -10 7 -3 25 17 17 19 34 49 37
68 8 42 -9 103 -36 127 -20 18 -20 18 -20 -88z"/>
<path d="M2305 2440 c-25 -26 -27 -34 -19 -57 5 -14 14 -28 21 -30 16 -6 40
34 48 80 9 47 -9 50 -50 7z"/>
<path d="M2860 2378 c0 -36 4 -35 14 5 4 16 2 27 -4 27 -5 0 -10 -14 -10 -32z"/>
<path d="M2932 2317 c-28 -53 -28 -53 8 -72 61 -31 90 -17 90 46 0 24 -4 29
-24 29 -14 0 -31 9 -38 19 -13 18 -15 17 -36 -22z"/>
<path d="M2876 2064 c-19 -18 -20 -28 -6 -55 9 -15 22 -19 63 -19 57 0 77 12
77 45 0 12 -5 26 -12 33 -18 18 -103 15 -122 -4z"/>
<path d="M2582 2000 c-60 -14 -112 -84 -112 -149 0 -41 41 -104 80 -123 132
-66 267 65 204 198 -28 58 -104 91 -172 74z m93 -124 c16 -45 -21 -84 -69 -72
-35 9 -52 45 -36 75 25 47 87 45 105 -3z"/>
<path d="M2220 1930 c-11 -11 -20 -24 -20 -30 0 -19 40 -50 66 -50 41 0 64 18
64 50 0 50 -71 69 -110 30z"/>
</g>
</svg>
